<?xml version="1.0" encoding="UTF-8"?>
<!-- Generator: Adobe Illustrator 16.0.4, SVG Export Plug-In . SVG Version: 6.00 Build 0)  -->
<!DOCTYPE svg PUBLIC "-//W3C//DTD SVG 1.1//EN" "http://www.w3.org/Graphics/SVG/1.1/DTD/svg11.dtd">
<svg version="1.1" id="Capa_1" xmlns="http://www.w3.org/2000/svg" xmlns:xlink="http://www.w3.org/1999/xlink" x="0px" y="0px" width="23.303px" height="19.369px" viewBox="0 0 23.303 19.369" enable-background="new 0 0 23.303 19.369" xml:space="preserve">
<g>
	<path d="M17.558,6.432C17.558,2.882,13.631,0,8.782,0C3.928,0,0,2.882,0,6.432c0,2.186,1.497,4.107,3.771,5.271l-2.18,4.144   l4.728-3.269c0.786,0.169,1.604,0.289,2.463,0.289C13.632,12.867,17.558,9.986,17.558,6.432z M6.024,7.13H4.17V5.275h1.854V7.13z    M11.65,5.275h1.854V7.13H11.65V5.275z M7.91,5.275h1.853V7.13H7.91V5.275z"/>
	<path d="M23.303,10.479c0-2.333-1.797-4.357-4.432-5.375c0.13,0.479,0.2,0.976,0.2,1.488c0,4.208-4.65,7.622-10.396,7.622   c-0.071,0-0.137-0.015-0.207-0.015c1.515,1.431,3.88,2.355,6.543,2.355c0.812,0,1.583-0.113,2.325-0.271l4.468,3.085l-2.061-3.911   C21.891,14.356,23.303,12.542,23.303,10.479z"/>
</g>
</svg>