<?xml version="1.0" encoding="UTF-8"?>
<!-- Generator: Adobe Illustrator 16.0.4, SVG Export Plug-In . SVG Version: 6.00 Build 0)  -->
<!DOCTYPE svg PUBLIC "-//W3C//DTD SVG 1.1//EN" "http://www.w3.org/Graphics/SVG/1.1/DTD/svg11.dtd">
<svg version="1.1" id="Capa_1" xmlns="http://www.w3.org/2000/svg" xmlns:xlink="http://www.w3.org/1999/xlink" x="0px" y="0px" width="612px" height="792px" viewBox="0 0 612 792" enable-background="new 0 0 612 792" xml:space="preserve">
<path d="M597.312,552.672c1.224,9.384-1.634,17.544-8.568,24.48l-81.396,80.782c-3.672,4.08-8.466,7.55-14.382,10.404  c-5.916,2.856-11.729,4.692-17.44,5.508c-0.408,0-1.634,0.104-3.674,0.308c-2.038,0.204-4.69,0.306-7.954,0.306  c-7.753,0-20.3-1.326-37.64-3.978c-17.34-2.652-38.556-9.182-63.646-19.584c-25.094-10.404-53.552-26.012-85.375-46.818  s-65.688-49.368-101.592-85.68c-28.56-28.152-52.224-55.08-70.992-80.784s-33.864-49.47-45.288-71.298  C47.94,344.49,39.372,324.702,33.66,306.954s-9.588-33.048-11.628-45.9c-2.04-12.852-2.856-22.95-2.448-30.294  c0.408-7.344,0.612-11.424,0.612-12.24c0.816-5.712,2.652-11.526,5.508-17.442s6.324-10.71,10.404-14.382l81.396-81.396  c5.712-5.712,12.24-8.568,19.584-8.568c5.304,0,9.996,1.53,14.076,4.59s7.548,6.834,10.404,11.322l65.484,124.236  c3.672,6.528,4.692,13.668,3.06,21.42c-1.632,7.752-5.1,14.28-10.404,19.584l-29.988,29.988c-0.816,0.816-1.53,2.142-2.142,3.978  c-0.612,1.836-0.918,3.366-0.918,4.59c1.632,8.568,5.304,18.36,11.016,29.376c4.896,9.792,12.444,21.726,22.644,35.802  c10.2,14.076,24.684,30.294,43.452,48.653c18.36,18.769,34.68,33.354,48.96,43.759c14.278,10.402,26.214,18.054,35.802,22.95  c9.588,4.896,16.932,7.854,22.032,8.872l7.648,1.53c0.816,0,2.144-0.306,3.979-0.918s3.162-1.326,3.978-2.142l34.884-35.496  c7.346-6.528,15.912-9.792,25.704-9.792c6.938,0,12.444,1.224,16.524,3.672h0.612l118.114,69.768  C590.58,537.78,595.68,544.512,597.312,552.672z"/>
</svg>