<?xml version="1.0" encoding="UTF-8" standalone="no"?>
<svg width="172px" height="140px" viewBox="0 0 172 140" version="1.1" xmlns="http://www.w3.org/2000/svg" xmlns:xlink="http://www.w3.org/1999/xlink" xmlns:sketch="http://www.bohemiancoding.com/sketch/ns">
    <g id="Page-1" stroke="none" stroke-width="1" fill="none" fill-rule="evenodd" sketch:type="MSPage">
        <g id="twitter_white" sketch:type="MSLayerGroup" fill="#FFFFFF">
            <g id="layer1" transform="translate(-0.320530, -0.307340)" sketch:type="MSShapeGroup">
                <path d="M151.61741,22.34668 C158.88154,17.99214 164.46147,11.09676 167.08808,2.87993 C160.28874,6.91288 152.75878,9.84048 144.74347,11.41834 C138.32572,4.57955 129.18104,0.30734 119.06049,0.30734 C99.6289,0.30734 83.87353,16.06099 83.87353,35.49259 C83.87353,38.2504 84.18481,40.93618 84.78508,43.51134 C55.54164,42.04411 29.61513,28.03552 12.26047,6.74738 C9.23168,11.944 7.49604,17.98786 7.49604,24.43648 C7.49604,36.64425 13.70798,47.41395 23.14936,53.72364 C17.38163,53.54099 11.95605,51.95799 7.2122,49.32281 C7.2082,49.46944 7.2082,49.61693 7.2082,49.76529 C7.2082,66.81296 19.33709,81.03335 35.43375,84.26795 C32.48128,85.07231 29.37274,85.50193 26.16386,85.50193 C23.89656,85.50193 21.69272,85.28069 19.54375,84.87079 C24.02176,98.84936 37.01589,109.02222 52.41367,109.3052 C40.3714,118.74316 25.20001,124.36855 8.71402,124.36855 C5.87388,124.36855 3.0732,124.20133 0.32053,123.87632 C15.89239,133.86053 34.38756,139.68572 54.25821,139.68572 C118.97845,139.68572 154.37122,86.07048 154.37122,39.57185 C154.37122,38.04631 154.33692,36.52934 154.26918,35.01924 C161.14312,30.05929 167.10809,23.86278 171.82536,16.80619 C165.51623,19.60516 158.73404,21.49601 151.61741,22.34668 Z" id="path5"></path>
            </g>
        </g>
    </g>
</svg>