<?xml version="1.0" encoding="UTF-8"?>
<!-- Generator: Adobe Illustrator 16.0.4, SVG Export Plug-In . SVG Version: 6.00 Build 0)  -->
<!DOCTYPE svg PUBLIC "-//W3C//DTD SVG 1.1//EN" "http://www.w3.org/Graphics/SVG/1.1/DTD/svg11.dtd">
<svg version="1.1" id="Layer_1" xmlns="http://www.w3.org/2000/svg" xmlns:xlink="http://www.w3.org/1999/xlink" x="0px" y="0px" width="26px" height="26px" viewBox="0 0 26 26" enable-background="new 0 0 26 26" xml:space="preserve">
<g>
	<path fill="#333333" d="M23,14H3c-1.656,0-3,1.344-3,3v1c0,1.656,1.344,3,3,3h9v3H5c-0.552,0-1,0.447-1,1s0.448,1,1,1h16   c0.553,0,1-0.447,1-1s-0.447-1-1-1h-7v-3h9c1.656,0,3-1.344,3-3v-1C26,15.344,24.656,14,23,14z M3.5,19C2.672,19,2,18.328,2,17.5   S2.672,16,3.5,16S5,16.672,5,17.5S4.328,19,3.5,19z M8.5,19C7.672,19,7,18.328,7,17.5S7.672,16,8.5,16s1.5,0.672,1.5,1.5   S9.328,19,8.5,19z M13.5,19c-0.828,0-1.5-0.672-1.5-1.5s0.672-1.5,1.5-1.5s1.5,0.672,1.5,1.5S14.328,19,13.5,19z M22.5,19   c-0.828,0-1.5-0.672-1.5-1.5s0.672-1.5,1.5-1.5s1.5,0.672,1.5,1.5S23.328,19,22.5,19z"/>
	<path fill="#333333" d="M23,13c1.13,0,2.162,0.391,3,1.025L23,3c-0.377-1.648-1.344-3-3-3H6C4.344,0,3.258,1.352,3,3L0,14.025   C0.838,13.391,1.87,13,3,13H23z M12,3h2c2.959,0,7,1.017,7,5c0,0.451-0.449,1-1,1h-3c-0.551,0-1-0.449-1-1c0,0,0-0.976,0-2   s-1-1-1-1h-4c0,0-1,0.024-1,1s0,2,0,2c0,0.551-0.449,1-1,1H6C5.449,9,5,8.467,5,8C5,4.017,9.041,3,12,3z"/>
</g>
</svg>