<?xml version="1.0" encoding="UTF-8" standalone="no"?>
<svg width="61px" height="33px" viewBox="0 0 61 33" version="1.1" xmlns="http://www.w3.org/2000/svg" xmlns:xlink="http://www.w3.org/1999/xlink" xmlns:sketch="http://www.bohemiancoding.com/sketch/ns">
    <title>Slice 1</title>
    <description>Created with Sketch (http://www.bohemiancoding.com/sketch)</description>
    <defs/>
    <g id="Page-1" stroke="none" stroke-width="1" fill="none" fill-rule="evenodd" sketch:type="MSPage">
        <g id="Background" sketch:type="MSLayerGroup" transform="translate(-4.000000, -8.000000)"/>
        <g id="Guides" sketch:type="MSLayerGroup" transform="translate(-4.000000, -8.000000)"/>
        <path d="M16.149,0.815 L21.908,20.395 L27.667,0.815 L31.837,0.815 L43.28,0.815 L43.28,2.761 L37.402,12.888 C39.467,13.551 41.029,14.756 42.088,16.503 C43.147,18.25 43.677,20.302 43.677,22.658 C43.677,25.571 42.903,28.02 41.354,30.006 C39.805,31.992 37.799,32.984 35.337,32.984 C33.483,32.984 31.868,32.395 30.492,31.217 C29.115,30.039 28.096,28.444 27.434,26.431 L30.69,25.081 C31.167,26.299 31.796,27.259 32.577,27.96 C33.358,28.662 34.278,29.012 35.337,29.012 C36.449,29.012 37.389,28.39 38.157,27.146 C38.925,25.901 39.309,24.406 39.309,22.658 C39.309,20.725 38.898,19.229 38.078,18.17 C37.124,16.926 35.628,16.304 33.589,16.304 L32.001,16.304 L32.001,14.398 L37.562,4.786 L30.85,4.786 L30.468,5.436 L22.305,32.984 L21.908,32.984 L15.95,13.048 L9.992,32.985 L9.595,32.985 L0.064,0.815 L4.234,0.815 L9.993,20.395 L13.886,7.21 L11.98,0.815 L16.149,0.815 L16.149,0.815 Z" id="Shape" fill="#FFFFFF" sketch:type="MSShapeGroup"/>
        <g id="Calque_1" sketch:type="MSLayerGroup" transform="translate(44.000000, 1.000000)" fill="#FFFFFF">
            <g id="Group" sketch:type="MSShapeGroup">
                <path d="M15.839,-0.366 L16.515,3.741 L14.124,8.316 C14.124,8.316 13.206,6.375 11.681,5.301 C10.396,4.396 9.559,4.199 8.25,4.469 C6.569,4.816 4.663,6.826 3.831,9.304 C2.836,12.269 2.826,13.704 2.791,15.022 C2.735,17.135 3.068,18.384 3.068,18.384 C3.068,18.384 1.617,15.698 1.63,11.764 C1.639,8.956 2.081,6.41 3.38,3.897 C4.523,1.688 6.222,0.362 7.73,0.206 C9.289,0.045 10.521,0.796 11.473,1.61 C12.472,2.464 13.483,4.33 13.483,4.33 L15.839,-0.366 L15.839,-0.366 Z" id="Shape"/>
                <path d="M16.134,22.872 C16.134,22.872 15.077,24.761 14.419,25.489 C13.76,26.217 12.582,27.499 11.127,28.14 C9.671,28.781 8.909,28.902 7.471,28.764 C6.034,28.626 4.698,27.794 4.23,27.447 C3.762,27.1 2.566,26.078 1.891,25.125 C1.215,24.171 0.158,22.266 0.158,22.266 C0.158,22.266 0.747,24.177 1.116,24.987 C1.328,25.453 1.98,26.881 2.906,28.123 C3.768,29.282 5.445,31.277 7.992,31.727 C10.539,32.178 12.289,31.034 12.722,30.756 C13.155,30.479 14.068,29.715 14.646,29.097 C15.249,28.452 15.82,27.629 16.136,27.135 C16.367,26.775 16.743,26.043 16.743,26.043 L16.134,22.872 L16.134,22.872 Z" id="Shape"/>
            </g>
        </g>
    </g>
</svg>