<?xml version="1.0" encoding="windows-1252"?>
<!-- Generator: Adobe Illustrator 16.0.0, SVG Export Plug-In . SVG Version: 6.00 Build 0)  -->
<!DOCTYPE svg PUBLIC "-//W3C//DTD SVG 1.1//EN" "http://www.w3.org/Graphics/SVG/1.1/DTD/svg11.dtd">
<svg version="1.1" id="Capa_1" xmlns="http://www.w3.org/2000/svg" xmlns:xlink="http://www.w3.org/1999/xlink" x="0px" y="0px" width="28.396px" height="28.811px" viewBox="0 0 28.396 28.811" style="enable-background:new 0 0 28.396 28.811;" xml:space="preserve">
<path d="M21.262,6.082c1.109,0,2-0.889,2-1.994v-2.09c0-1.107-0.891-1.998-2-1.998c-1.102,0-1.996,0.891-1.996,1.998v2.09  C19.266,5.193,20.16,6.082,21.262,6.082z"/>
<path d="M28.365,3.46h-4.027v1.012c0,1.681-1.363,3.045-3.041,3.045c-1.68,0-3.041-1.364-3.041-3.045V3.46h-8.115v1.012  c0,1.681-1.361,3.045-3.041,3.045c-1.682,0-3.041-1.364-3.041-3.045V3.46L0,3.408v25.401l2.029,0.001h24.338l2.029-0.007  L28.365,3.46z M26.367,26.789H2.029v-16.23h24.338V26.789z"/>
<path d="M7.064,6.082c1.107,0,2-0.889,2-1.994v-2.09c0-1.107-0.893-1.998-2-1.998C5.963,0,5.068,0.891,5.068,1.998v2.09  C5.068,5.193,5.963,6.082,7.064,6.082z"/>
<path d="M7.506,21.518c0.418,0.228,1.367,0.612,2.322,0.612c1.211,0,1.822-0.581,1.822-1.319c0-0.994-0.986-1.441-2.008-1.441H8.691  v-1.674h0.916c0.785,0,1.768-0.307,1.768-1.151c0-0.6-0.479-1.044-1.473-1.044c-0.812,0-1.67,0.354-2.072,0.601l-0.477-1.687  c0.604-0.384,1.781-0.752,3.088-0.752c2.119,0,3.293,1.118,3.293,2.482c0,1.061-0.594,1.905-1.824,2.317v0.033  c1.197,0.214,2.166,1.121,2.166,2.438c0,1.749-1.551,3.038-4.082,3.038c-1.291,0-2.377-0.336-2.959-0.692L7.506,21.518z"/>
<polygon points="18.59,15.903 18.561,15.903 16.658,16.807 16.275,15.057 18.928,13.832 20.846,13.832 20.846,23.804 18.59,23.804   "/>
<g>
</g>
<g>
</g>
<g>
</g>
<g>
</g>
<g>
</g>
<g>
</g>
<g>
</g>
<g>
</g>
<g>
</g>
<g>
</g>
<g>
</g>
<g>
</g>
<g>
</g>
<g>
</g>
<g>
</g>
</svg>