<?xml version="1.0" encoding="UTF-8" standalone="no"?>
<svg width="129px" height="126px" viewBox="0 0 129 126" version="1.1" xmlns="http://www.w3.org/2000/svg" xmlns:xlink="http://www.w3.org/1999/xlink" xmlns:sketch="http://www.bohemiancoding.com/sketch/ns">
    <title>Slice 1</title>
    <description>Created with Sketch (http://www.bohemiancoding.com/sketch)</description>
    <defs></defs>
    <g id="Page-1" stroke="none" stroke-width="1" fill="none" fill-rule="evenodd" sketch:type="MSPage">
        <g id="Fill-4" sketch:type="MSLayerGroup" fill="#FFFFFF">
            <path d="M64.4940606,0 C28.8813653,0 0,28.9196492 0,64.5963369 C0,93.1353078 18.4794806,117.344064 44.1100095,125.885532 C47.3370883,126.480341 48.5130913,124.485746 48.5130913,122.772694 C48.5130913,121.24205 48.4576568,117.177517 48.4259799,111.788541 C30.4850057,115.690493 26.6996225,103.128111 26.6996225,103.128111 C23.7655545,95.6652318 19.5366954,93.6785673 19.5366954,93.6785673 C13.6804383,89.6735151 19.9801713,89.7528231 19.9801713,89.7528231 C26.4541269,90.2088439 29.8593879,96.4107267 29.8593879,96.4107267 C35.6126953,106.280603 44.9573652,103.429482 48.6318794,101.77591 C49.2179011,97.6043116 50.8848952,94.7571557 52.7261119,93.1432386 C38.4042174,91.5134599 23.3458363,85.9698332 23.3458363,61.2178176 C23.3458363,54.1673396 25.860186,48.3976852 29.9860953,43.885062 C29.3208815,42.2513179 27.1074619,35.6806531 30.6196323,26.7902303 C30.6196323,26.7902303 36.0324135,25.0533859 48.354707,33.4124453 C53.4982351,31.9769712 59.0179257,31.2631995 64.5019798,31.2354417 C69.9820743,31.2631995 75.4978053,31.9769712 80.6492526,33.4124453 C92.9636269,25.0533859 98.3684889,26.7902303 98.3684889,26.7902303 C101.888579,35.6806531 99.6751588,42.2513179 99.0139047,43.885062 C103.147733,48.3976852 105.642285,54.1673396 105.642285,61.2178176 C105.642285,86.0332796 90.5601461,91.4936329 76.194696,93.0916884 C78.5071058,95.0862837 80.5700605,99.0278895 80.5700605,105.055295 C80.5700605,113.687967 80.4908684,120.655171 80.4908684,122.772694 C80.4908684,124.501608 81.6549925,126.512065 84.9256269,125.881566 C110.536358,117.320271 129,93.127377 129,64.5963369 C129,28.9196492 100.118635,0 64.4940606,0" sketch:type="MSShapeGroup"></path>
        </g>
    </g>
</svg>